<svg width="480" height="540" viewBox="0 0 168 185" fill="none" xmlns="http://www.w3.org/2000/svg">
<g opacity="0.1">
<circle cx="93" cy="108" r="4" fill="#FF3D4E"/>
<circle cx="101.5" cy="113.5" r="2.5" fill="#FF3D4E"/>
<path d="M95 117.5C95 118.328 94.3284 119 93.5 119C92.6716 119 92 118.328 92 117.5C92 116.672 92.6716 116 93.5 116C94.3284 116 95 116.672 95 117.5Z" fill="#FF3D4E"/>
<path d="M74.9404 48.2232C74.9404 48.2232 113.05 40.7449 101.697 5C101.697 5 67.4315 11.0321 74.9404 48.2232Z" stroke="#4E6C50" stroke-width="8.50343" stroke-linecap="round" stroke-linejoin="round"/>
<path d="M57.1382 38.657C57.1382 38.657 75.8035 43.967 85.9141 65.5863" stroke="#4E6C50" stroke-width="9.14222" stroke-linecap="round" stroke-linejoin="round"/>
<path d="M54.0859 108.68C59.6903 90.3837 80.593 80.9706 98.8731 86.5466C120.161 93.04 131.057 116.312 124.321 136.62C116.615 159.851 89.7915 171.696 66.4316 164.128C40.0821 155.592 26.6893 126.536 35.4725 101.276C45.2674 73.1059 78.0284 58.8242 106.465 68.3919C119.824 72.8869 131.204 82.1603 138.275 94.0783" stroke="#FF3D4E" stroke-width="9.75651" stroke-linecap="round"/>
<circle cx="159" cy="116" r="9" fill="#4E6C50"/>
<circle cx="9" cy="117" r="9" fill="#4E6C50"/>
</g>
</svg>

